# xmcd
#
# Track frame offsets: 
#        225
#        11089
#        20855
#        35942
#        46700
#        64429
#        81712
#        98589
#        110367
#        119384
#        134304
#        146403
#
# Disc length: 2174 seconds
#
# Revision: 0
# Processed by: cddbd v1.5.1PL2 Copyright (c) Steve Scherf et al.
# Submitted via: ExactAudioCopy v0.95b4
#
DISCID=ae087b0c
DTITLE=Bluegrass Disciples - God Sent An Angel
DYEAR=1900
DGENRE=Bluegrass
TTITLE0=That Home Far Away
TTITLE1=Born Again
TTITLE2=Tears Will Never Stain The Streets Of That City
TTITLE3=He's Coming Soon
TTITLE4=God Sent An Angel
TTITLE5=Jesus Hold My Hand
TTITLE6=Singin' For The King
TTITLE7=Church At Hickory Grove
TTITLE8=Hallelujah . I'm Ready To Go
TTITLE9=I Was , I Am , I Will
TTITLE10=Let Me Tell You About Jesus
TTITLE11=A Vision Of Mother
EXTD=
EXTT0=
EXTT1=
EXTT2=
EXTT3=
EXTT4=
EXTT5=
EXTT6=
EXTT7=
EXTT8=
EXTT9=
EXTT10=
EXTT11=
PLAYORDER=
